<?xml version="1.0" encoding="UTF-8"?>
<svg width="32px" height="32px" viewBox="0 0 32 32" version="1.1" xmlns="http://www.w3.org/2000/svg">
    <title>Motion Logo</title>
    <g stroke="none" stroke-width="1" fill="none" fill-rule="evenodd">
        <rect fill="#000000" x="0" y="0" width="32" height="32" rx="8"></rect>
        <path d="M8,8 L24,8 C25.1045695,8 26,8.8954305 26,10 L26,22 C26,23.1045695 25.1045695,24 24,24 L8,24 C6.8954305,24 6,23.1045695 6,22 L6,10 C6,8.8954305 6.8954305,8 8,8 Z" fill="#FFFFFF"></path>
        <path d="M10,12 L14,12 C14.5522847,12 15,12.4477153 15,13 L15,19 C15,19.5522847 14.5522847,20 14,20 L10,20 C9.44771525,20 9,19.5522847 9,19 L9,13 C9,12.4477153 9.44771525,12 10,12 Z" fill="#000000"></path>
        <path d="M18,12 L22,12 C22.5522847,12 23,12.4477153 23,13 L23,19 C23,19.5522847 22.5522847,20 22,20 L18,20 C17.4477153,20 17,19.5522847 17,19 L17,13 C17,12.4477153 17.4477153,12 18,12 Z" fill="#000000"></path>
    </g>
</svg> 